<?xml version="1.0" encoding="utf-8"?>
<!-- Generator: Adobe Illustrator 19.2.1, SVG Export Plug-In . SVG Version: 6.00 Build 0)  -->
<svg version="1.1" id="_x33_c1cc0af-cad0-469e-a86f-19ad32af0219"
	 xmlns="http://www.w3.org/2000/svg" xmlns:xlink="http://www.w3.org/1999/xlink" x="0px" y="0px" viewBox="0 0 539 379.9"
	 style="enable-background:new 0 0 539 379.9;" xml:space="preserve">
<style type="text/css">
	.st0{fill:#242623;}
	.st1{fill:#E87722;}
	.st2{font-family:'Montserrat-Bold';}
	.st3{font-size:70px;}
</style>
<title>broken</title>
<g id="c5a1a272-f500-40ef-a2dc-aa155e1b5c22">
	<path id="c151272d-0fa4-4f63-a1dc-324c2770c8df" class="st0" d="M18.3,0h502.3C530.8,0,539,8.2,539,18.3v246.8
		c0,10.1-8.2,18.3-18.3,18.3H18.3C8.2,283.4,0,275.2,0,265.1V18.3C0,8.2,8.2,0,18.3,0z"/>
	<rect id="dba3545f-af80-4a8c-b135-e54fe6d8d507" x="250.9" y="278.8" class="st0" width="55.8" height="86"/>
	<rect id="_x37_82b0b5c-12cd-452d-b29c-5d3c9707a2b7" x="180" y="361.3" class="st0" width="197.5" height="18.6"/>
	<path id="ec90332b-c42a-418b-b00f-a0fbbb7b60f4" class="st1" d="M515.5,264.9h3.2c2.2,0,4,1.8,4,4l0,0c0,2.2-1.8,4-4,4h-3.2
		c-2.2,0-4-1.8-4-4l0,0C511.5,266.6,513.2,264.9,515.5,264.9z"/>
</g>
<path class="st1" d="M317.8,47.8c-0.9,0.9,22.8,25.5,23,27.1c0.1,0.7-4.3,4.3-4.7,4.7c-1.7-1.6-3.6-3.1-5.4-4.6
	c10.1-10.1-9.1,27.4-2,15.5C326,95,321.9,87,318.3,88c23.3-10-7.6,29.5-4.5,20.1c-0.3,0.9,9.3,0.5,9.3,1.2c0,0.8-8.5-1.6-8.8-0.7
	c0,0,8.3,1,8.8,1.1c-0.3,0.8-8.5,13-8.5,7.1c0-0.1,8.1,0.3,8.4,0c-2.6,0.1-5.3,0.3-7.9,0.5c0,0.4,7.3-0.2,7.9-0.2
	c-0.5,0.3,0.6,2.9,0.2,3.3c0.3-0.3-11.5,1.4-11.5,1.6c0,1.5,11.6-2.7,11.6-1.2c0-0.5-10.1,1.8-11,1.8c20.7,0,5.9,4.2,8.4,9.6
	c0.3,0.7,4.8-1.7,5-1.7c0.4,0-4.2,2.8-4.5,2.3c3.2,4.5,7.7-8.1,7.7,5.3c0-3.6,2.8,2.9,0.6,0.6c3.4,3.4,12.2,26.8,6.5,22.1
	c0.2,0.1,5.5-6.4,5.8-6.2c-1.7,2.3-3.4,4.5-5.2,6.7c-1.5-1.2,5.8-5.1,8.2-4.4c7.8,2.3-3.7,9.6-1.8,10.8c0.4,0.2,5.1-8.4,5.4-8.2
	c-0.2-0.1-4.7,9.3-4.9,8.7c-8.3-21.5,32.4,6.1,18,6.1c0.5,0,2.2-8.5,2.2-8.5s-1.6,9-1.6,9c7.8,1.8-7.3-17.4,13.3-7.5
	c1.6,0.8,1.7,8.1,1.8,8.1c0.6,0-0.5-8.1,0-8.1c0.1,2.9,0.3,5.8,0.6,8.6c2.9,0-6.5-19.5,19.7-16.1c4.7,0.6,13.1,15.7,13.1,20.5
	c0-14.3-11-13.7-6.6-24.2c6.8-16.4,26.8-11.2,25.8-9.5c1-1.5-11.7-4.3-9.8-8.3c8.2-17.6,4.6-0.7,9.5-6.9c-10.8,10.8,9.3-32,9.3-14.4
	c-3.2-0.2-6.4-0.3-9.6-0.4c0.4,0,9,0,9-0.1c0-0.3-8.8-0.4-9.9-0.5c-0.2,0.1,11.6-7.6,11.7-7.6c-1.4,1.4-10.6-0.8-12,0.6
	c0.7-1.1,11.5-0.1,11.5-1.3c0-0.3-11.6,1.3-11.6,0.7c0.1,2.8,1.7-31.6,5.8-20.7c-0.2-0.8-9.3,5-10.6,5c0.6,0,9.3-6.3,10-5.6
	c-6.1-6.1-14.7,16.9-14.7-2.2c0,0.9-0.5,0.9-0.5-0.5c0,22.4-21-29.9-7.5-21.1c-0.3-0.1-5.7,7.9-5.6,7.9c-0.2,0-0.3-0.1-0.4-0.3
	c2-2.6,3.9-5.3,5.5-8.1c-0.3-0.2-5.7,7.9-5.6,7.9c-1.5,0-3.4-3-4.9-2.8c1.4-2.8,9-14.1,8.1-16.7c0.3,0.8-8.9,16.1-8.5,16.3
	c0.1,0.1,7.1-16.5,7.8-16.9c-3.3,1.6-6.6,13.2-8.3,16.7c-1.7,3.5-7.8-6.8-3.9-6.8c-0.5,1.5-1.1,3-1.9,4.4c-0.2-0.1,1.9-4.9,1.5-4.9
	c5.4,0-18.9,5.4-6.7-2.8c-0.4,2-0.9,4-1.4,5.9c-1.3,0,2.2-6.4,1-6.4c-2.1,0-0.8,11.7-2.8,13.1c-3,2.2-14.8,4.6-13.6,3.9
	c-4.7,2.9,4.3-0.6-0.5-0.6c12.5,0-33,9.6-20.3-0.1c2-1.5,17.9-8.5,19.2-6.9c0.3,2.2,0.6,4.5,0.9,6.7c0-2.2-0.2-4.4-0.4-6.6
	c0.3,2.4,0.6,4.7,1,7c0.5,0.5-0.9-10.1-1.1-10.1c-0.3,0,0-0.5-0.5-0.5c25.5,0-51.9,15.7-29.4-4.7c2.5-2.1,11.4,18.5,6.2,16.4
	C343.8,73.9,315.3,50.4,317.8,47.8z M386.2,63.8C388.1,65.1,385.1,63.1,386.2,63.8L386.2,63.8z M387.9,64.5
	C400.4,67.4,381,62.7,387.9,64.5C389.3,64.8,387.5,64.4,387.9,64.5L387.9,64.5z M392.4,65.2L392.4,65.2z M368.9,65.6
	c0-2.2-19.9,6.9-19.7,7.2C347,69,368.9,66.4,368.9,65.6L368.9,65.6z M392.9,65.7L392.9,65.7z M392.3,66.7
	C391.3,69.5,393.3,64,392.3,66.7L392.3,66.7z M395.6,67C404.2,70.4,386.8,63.3,395.6,67C396.4,67.3,395.1,66.8,395.6,67L395.6,67z
	 M385.6,66.3c0.8,0.6-1.8,6.2-1.8,7.1C383.8,73.4,385.3,66.1,385.6,66.3L385.6,66.3z M387.4,67.1c2.3,0.6,7.7,1.6,9.5,3.4
	C410.7,84.3,367.4,62.4,387.4,67.1C388.2,67.3,386.2,66.8,387.4,67.1L387.4,67.1z M391.5,67.8L391.5,67.8z M398.5,67.7
	C398.6,67.9,398.3,67.3,398.5,67.7C398.5,67.7,398.5,67.7,398.5,67.7L398.5,67.7z M398.6,68.4C399.3,70.1,399,69.5,398.6,68.4
	C398.6,68.5,398.5,68.1,398.6,68.4L398.6,68.4z M400.3,69.2c4.8,2.6,2.9,6.6-1.8,10.4c-0.4-0.4-3.7-1.7-3.7-2.2
	C394.8,75.6,398.2,68.1,400.3,69.2L400.3,69.2L400.3,69.2z M397.5,70.7c-0.9,2.2-2,4.3-3.2,6.4C393.7,76.9,397.3,70.6,397.5,70.7
	L397.5,70.7z M404.5,71.7L404.5,71.7z M348.9,73.1L348.9,73.1z M351,76.4c4.5,7.1-13.8,13.1-13.8,4C337.1,75.3,350.4,75.5,351,76.4
	L351,76.4z M403,73.8c-1.2,2.2-2.6,4.2-4.1,6.1C399,80.1,402.4,73.3,403,73.8L403,73.8z M384.2,74.1
	C385.4,78.3,384.3,74.4,384.2,74.1C384.2,74.2,384.1,74,384.2,74.1z M404.6,75c1.2,0.8,11.7,10.1,10.7,10.9
	C401.8,98.2,399.4,71.3,404.6,75L404.6,75z M385.8,74.8C394.3,76.9,379.8,73.2,385.8,74.8L385.8,74.8z M341.4,75.5
	C340.2,72.4,343.2,86,341.4,75.5C341.4,75.5,341.4,75.4,341.4,75.5L341.4,75.5z M389.4,75.6L389.4,75.6z M389.1,75.8L389.1,75.8z
	 M391.3,76.5c3.3,1.3,20.1,11.7,17.7,13.9c-8.7,8.7-18.9,0.3-16.3-9c1.3,0.8,2.7,1.4,4.1,2C396.2,84.6,383.6,73.5,391.3,76.5
	L391.3,76.5L391.3,76.5z M370.6,76.8L370.6,76.8z M374.3,76.8C373.1,77,374.3,76.8,374.3,76.8S374.3,76.8,374.3,76.8L374.3,76.8z
	 M373.2,76.9L373.2,76.9z M370.3,77.1c0-0.3-16.1,4.4-14.8,5.4C355.4,82.4,370.3,76.9,370.3,77.1L370.3,77.1z M382.9,77.3
	L382.9,77.3C382.8,77.5,382.9,77.2,382.9,77.3L382.9,77.3z M371.2,77.4L371.2,77.4z M379.9,77.5c2.8,0.3,3.9,4.1,1.8,6.1
	c0.4-1.9,0.8-3.8,1.2-5.7c-0.8,0.9,0,5.5-0.7,6.2c6.3-6.3,1.2-4.1,9.6-3.4c-0.6,1.6-3.1,4.7-3.1,6.4c0-0.7,16.8,11.1,13.5,14.4
	c-15,12-19.2-13.5-13.1-13.5c0.7,0-4.2,7.8-4.4,7.5c-0.8-1,5.3-6.7,4-7.9c3.2,3.2-8.8,8.9-8.8,8.8c-0.3-2.6,3.5-11.2,2.2-11.9
	c-0.8-0.5,0.4,0.4-0.5-0.5c-2.1-2.1-31.8,4.6-25.5-1.2c1.2-1.2,13.1-6.7,14.4-5.2c0,0,0.6,5.6,0.9,5.6s-0.7-5.6-0.5-5.6
	c0.3,2.1,0.6,4.1,1,6.1c0.2,0-0.6-6.4-0.6-6.1C374.1,77.2,377,77.1,379.9,77.5L379.9,77.5L379.9,77.5z M383.5,77.8L383.5,77.8z
	 M387.7,78.5L387.7,78.5z M353.1,79.6L353.1,79.6z M354,81.1c1.1,1.7,4.2,4.8,4.2,6.7c-1,1-2.1,1.8-3.4,2.5
	C346.1,90.3,351,76.5,354,81.1C354.4,81.7,353.6,80.6,354,81.1L354,81.1z M336.4,80.3c0.7,1.1-9,11.1-8.1,12.1
	C327,91,336.9,81.1,336.4,80.3L336.4,80.3z M337.9,81.7c34.5,29.1-9,15.7-9,11C328.9,89.6,334.9,79.1,337.9,81.7
	C338.3,82.1,337.4,81.3,337.9,81.7z M392.3,81.1C394,82.4,391.9,80.9,392.3,81.1L392.3,81.1z M392.7,81.1L392.7,81.1z M348.2,83.4
	C348.2,85.5,347,89.7,348.2,83.4C348.2,83.4,348.2,83,348.2,83.4z M349.4,84.7c-0.7,0.7-0.5,3.8-3.5,3.5
	C344.2,86.7,347.9,82.9,349.4,84.7L349.4,84.7z M371.5,84.7L371.5,84.7z M372.1,85.2c0.3,0.1,8.8-0.1,8.8,0.6
	c0,7.3-20.8,19.9-20.8,3.9C360.4,87.1,372.1,86,372.1,85.2L372.1,85.2z M381.5,85.8c-0.5,2.8-1.1,5.6-1.7,8.3
	C379.5,94.3,381.5,85.3,381.5,85.8z M349,87.8C343,93.7,354.9,82,349,87.8C348.1,88.7,349.9,86.9,349,87.8L349,87.8z M415.7,86.3
	c0.2,0.5-6,4.3-5.9,4.3C409.7,90.6,415.6,85.8,415.7,86.3C415.8,86.4,415.7,86.2,415.7,86.3L415.7,86.3z M354.6,90.6
	c2.9,2.5-6.8,4.9-6.8-0.8C346.8,83.6,353.9,90,354.6,90.6C354.7,90.7,354.4,90.5,354.6,90.6L354.6,90.6z M416.5,87.5
	c-2-3.1,5.6,17.7-3.2,8.9c-0.8-1.7-1.9-4.2-3.3-5.5C410.9,90.1,415.6,86.1,416.5,87.5L416.5,87.5L416.5,87.5z M362,87.9
	C355.4,91.2,366.6,85.6,362,87.9L362,87.9z M358.7,88.1L358.7,88.1z M358.7,88.4L358.7,88.4z M359.3,89.1c0,2.1,4,5.4,4.6,7.3
	c0,0-2.2,1.7-2.2,1.7C351.7,98.1,359.2,88.7,359.3,89.1L359.3,89.1z M360,89.6L360,89.6z M409.4,90.9L409.4,90.9z M410.8,93.1
	c3,2.7,2.7,4.3-0.7,4.9C406.7,98,407.3,87.3,410.8,93.1C411.6,94.6,410.1,92.1,410.8,93.1L410.8,93.1z M355.8,92.1L355.8,92.1z
	 M328,92.5L328,92.5z M358.6,95.3c5.1,6,0,16.3-9.7,6.6C350.2,103.1,352.6,88.3,358.6,95.3C359.9,96.9,357.3,93.8,358.6,95.3
	L358.6,95.3z M422.4,92.7L422.4,92.7z M406.3,93C407.7,97.4,405.7,91.6,406.3,93C406.3,93.1,406.2,92.9,406.3,93L406.3,93z
	 M327.9,93.7c-0.3,5.3-1.8,10.5-4.4,15.1C323.6,104.4,327.3,95.1,327.9,93.7C325.7,98.9,328.1,93.3,327.9,93.7L327.9,93.7z
	 M328.6,93.1L328.6,93.1z M422.9,93.8c0.3,0.6,4.5,18.4,1.8,15.6c0.8,0,1.5,0,2.3,0.1c-0.6,0.1-1.2,0.2-1.8,0.3
	c1.9-3.9-0.2,10.1-0.2,6.7c0,0.2,0.5,0.2,0.5,0.5c0,0.8,1.1,8.3-0.4,12.6c-5.1,13.5,0.2-25.2,0.2-12.6c-2.2-0.2-4.4-0.4-6.6-0.4
	c2,0,4.1-0.1,6.1-0.1c0-0.2-6.1-0.4-7-0.4c0.1-0.9-0.7-4.6-0.2-5.2c0.6-0.6,7.4-0.1,7.4-0.9c0-1.3-7.6,1.6-7.8,0.6
	c-0.1-0.4,7.3-0.6,7.3-1.1c0-2.5-23.7,8.4-13.5-9.4C411.6,98.7,421.9,91.6,422.9,93.8C423.8,95.7,422.7,93.4,422.9,93.8L422.9,93.8z
	 M329.8,93.9c0.7,0.7-4,13.1-4.1,15.2c0,0.3-1.6-0.2-1.6-0.1C324.1,108.7,325.6,89.7,329.8,93.9L329.8,93.9z M353.8,93.9L353.8,93.9
	z M420.3,93.8c-2.2,1.2-4.5,2.2-6.8,3.1C413.5,96.7,420.3,93,420.3,93.8z M406.8,93.9c5.1,8.3-1.6,3-4,7
	C401.3,103.5,402.2,86.4,406.8,93.9L406.8,93.9z M330.9,94.1L330.9,94.1z M330.5,94.2c0,0.8-4.3,15.1-4.3,15.1
	C324.9,109.3,330.5,95.1,330.5,94.2L330.5,94.2z M373.2,94.4L373.2,94.4z M334,95.7c7.5,3.4-0.4,20.5-7.3,13.6
	C324.3,106.9,327.6,92.8,334,95.7C335.5,96.4,332.4,95,334,95.7L334,95.7z M377.8,94.7c1.7,0.2,4,10.3,2,10.3
	c-0.5,0-0.9-0.9-1.4-0.2C382.1,100.3,365.7,93.5,377.8,94.7L377.8,94.7z M352.2,95.7C349,99.8,354.1,93.4,352.2,95.7
	C351.8,96.2,352.6,95.3,352.2,95.7L352.2,95.7z M379.6,95.7C378.9,98.9,380.1,93.1,379.6,95.7C379.4,96.6,379.6,95.3,379.6,95.7
	L379.6,95.7z M382.2,95.3C383.3,95.9,380.9,94.8,382.2,95.3C382.4,95.5,382,95.3,382.2,95.3L382.2,95.3z M383.3,96.1
	C382.5,99.2,382.5,95.8,383.3,96.1L383.3,96.1z M364.3,96.8L364.3,96.8z M384.7,96.6C386,98.5,384,96,384.7,96.6
	C384.7,96.7,384.5,96.5,384.7,96.6L384.7,96.6z M400.6,97.1C399.8,97.8,401.3,96.6,400.6,97.1L400.6,97.1z M413.2,97.1L413.2,97.1z
	 M338.1,97.4L338.1,97.4z M381,97.3L381,97.3z M337.1,98.7c0.2,4.1-1,8.2-3.3,11.6C332.5,109.8,338.6,95.4,337.1,98.7
	C335.7,102,337.5,97.9,337.1,98.7L337.1,98.7z M341.2,98.9c-0.3,0.2,6.4,2.8,6.3,2.8c8.8,8.8-15.5,7.8-10.5,15.1
	c3,4.3,10.3,0.1,10.3,7.5c0-14.7,8.2,12.4,8.2,22.7c0,0,3.6-5.2,3.9-5c0.2,0.1-3.5,5.4-3.2,5.6c-4.7-2.9,14.7-7.9,11.7-1.7
	c-0.1,0.3-1.8,9.4-2.3,9.2c5.6,1.2-25.6-7.8-16,1.9c-0.1-0.1,4.5-6.1,4.3-6.2c0.1,0-3.8,6.9-3.8,6.6c-1.4-17.2,22.9,5.6,14.1,5.6
	c2,0-0.2-6.9,1.9-6.9c0,0-1.5,7.5-1.5,7.2c0-16,10-2.2,12.1,3.4c-4-0.5-11.8,1.5-11.8-3c0-0.2-0.8,1.7-0.9,1.7c-0.7,0,1-2.3,0.2-2.3
	c-3.9,0-11.8,0.1-14-5.3c1.6,4.6-2.5-2.5-0.6-0.6c1.6,1.6-6.2-1.6-7.1-2.2c0.5-0.6,13.2-15.6,13-15.7c-1.4,1.5-2.8,3-4.3,4.5
	c1.2-1.7,2.5-3.4,3.8-5c-1.4,1.5-2.8,3-4.1,4.6c-3.4,3.4-9.4-13.3-10.9-16.2c2.9-1.4,9.5,1.2,8,2.2c9.3-6.4-21,4-9.4,4
	c-0.9,0-6.7-2.8-12.4-2.7c-1,4.3,6.2-22,8.1-10.5c-0.1-0.4-7.8,0.9-7.4,0.6c0,0.1,6.9-0.8,6.9-1c0,10.2-10.3-11.6-9.6-9.6
	c0.4,0.3,14.3,6.8,10,6.8C330.2,116.6,343.2,97.3,341.2,98.9C341.3,98.8,341.1,99,341.2,98.9L341.2,98.9z M365.6,99
	c-0.5,0.3,8.3-0.1,7.3-1c0.5,0.8,0.9,6.2,0.3,6.3c-4.6,0.7-3.1-2.7-6-2.8c-0.6,0.5-1.2,0.9-1.8,1.3c-0.4,1.8,3.4,2.6,2.3,4.6
	C362.6,103,362.8,100.8,365.6,99L365.6,99L365.6,99z M373.5,98.6C373.6,100.2,373.2,96.2,373.5,98.6C373.5,99,373.4,98.3,373.5,98.6
	L373.5,98.6z M383.4,98.3C383.6,98.5,383.2,97.9,383.4,98.3C383.5,98.3,383.4,98.2,383.4,98.3L383.4,98.3z M381.3,98.4L381.3,98.4z
	 M409.7,98.4L409.7,98.4z M381,98.6C380.3,101,380.9,98.9,381,98.6C380.7,99.4,381,98.5,381,98.6L381,98.6z M409.6,98.8L409.6,98.8z
	 M382.1,98.9C384.6,99.8,379.4,97.8,382.1,98.9L382.1,98.9z M410.3,98.8L410.3,98.8z M349.5,99.5C346.7,104.3,350.5,98.1,349.5,99.5
	C349.4,99.8,349.7,99.2,349.5,99.5L349.5,99.5z M410.3,100.5c1.2,3.1,2.1,6.4,2.5,9.7C400,116.6,407.6,93.8,410.3,100.5
	C410.8,101.9,410,99.9,410.3,100.5L410.3,100.5z M383,100.2C381.6,103,384.3,97.5,383,100.2C382.6,101,383.3,99.5,383,100.2
	L383,100.2z M385.1,100.4c2.5,1.6,4.5,2.8,2.6,4.9C386.5,104.5,380.8,97.8,385.1,100.4L385.1,100.4z M362.8,100.2
	C359.8,102.9,362.4,99.7,362.8,100.2L362.8,100.2z M373.9,100.6L373.9,100.6z M377.8,100.9C382.9,104.7,369.4,95.6,377.8,100.9
	L377.8,100.9z M382.1,100.9L382.1,100.9z M378.4,101.2L378.4,101.2z M348.2,101.8C346.8,102.9,348.7,101,348.2,101.8
	C348.1,101.8,348.2,101.7,348.2,101.8L348.2,101.8z M403.5,101.7C403.6,102,403.3,101.2,403.5,101.7
	C403.5,101.8,403.4,101.5,403.5,101.7L403.5,101.7z M402.4,102.2c-2.4,1.4-4.9,2.6-7.5,3.5C394.8,105.5,402.3,101.7,402.4,102.2
	C402.5,102.3,402.4,102.1,402.4,102.2L402.4,102.2z M403.2,102.1C403.4,102.3,403,101.7,403.2,102.1
	C403.3,102.1,403.2,102,403.2,102.1L403.2,102.1z M348.6,102.2L348.6,102.2z M381.9,102.2C383.3,104.5,382.6,103.3,381.9,102.2
	L381.9,102.2z M404.2,103.5l1.8,6.9C405.9,109.7,402.8,99.6,404.2,103.5C405.1,106.1,403.8,102.4,404.2,103.5L404.2,103.5z
	 M347.5,103.5C346.4,106.5,349.2,99.4,347.5,103.5C347.1,104.6,347.8,102.8,347.5,103.5L347.5,103.5z M382.7,102.6
	C384.4,104,380.8,101.3,382.7,102.6C382.9,102.7,382.6,102.5,382.7,102.6L382.7,102.6z M352.4,104.3c3,1.4,4.7,4.8,1.6,7.9
	c-0.1,0.3-7.8-0.8-7.9-0.8C342.8,107.5,348.3,102.4,352.4,104.3C354.3,105.1,350.5,103.3,352.4,104.3L352.4,104.3z M403,103.5
	c1,2.4,1.6,4.9,1.9,7.5C393.3,128.3,397.6,90.1,403,103.5C403.3,104.3,402.8,103,403,103.5L403,103.5z M382.6,104.6
	C379,110.1,386.1,99.3,382.6,104.6C381.6,105.9,383.4,103.3,382.6,104.6z M392.1,103C392.5,104.2,392.1,103,392.1,103
	S392,102.8,392.1,103L392.1,103z M368.9,104.3C372,109.2,365.8,99.5,368.9,104.3C369.3,104.9,368.4,103.6,368.9,104.3L368.9,104.3z
	 M385.6,104.8C389.6,107.5,379.2,100.4,385.6,104.8C386.1,105.2,385.3,104.6,385.6,104.8L385.6,104.8z M392.4,103.7
	c0.3,1.5,4.6,7,3,8.2C392,115.4,391.8,101.6,392.4,103.7C392.5,103.8,392.4,103.6,392.4,103.7z M363.2,103.9
	C358.7,111.1,363.1,103.8,363.2,103.9L363.2,103.9z M374,104.7L374,104.7C373.9,104.8,374,104.7,374,104.7z M377.3,104.6
	L377.3,104.6z M389.6,104.8L389.6,104.8z M379.9,105.3L379.9,105.3z M389.8,105.5L389.8,105.5z M366.5,106.8
	C363,109,364.5,105,366.5,106.8L366.5,106.8z M374.7,106.1c0,1.2,9.9,6.1,8.7,12.9c-1.8,10.2-21.1-1.3-21.1,0.7c0,5,6.3-8.9,3.1-4.3
	c0,0,3.2-7.8,2.9-7.5C367.5,108.6,374.7,106.9,374.7,106.1L374.7,106.1z M357.1,106.1C357.5,106.4,356.2,105.4,357.1,106.1
	L357.1,106.1z M395,106C395,106.1,394.8,105.7,395,106C395,106.1,394.9,106,395,106L395,106z M387.1,106.5L387.1,106.5z
	 M358.2,106.8c4.1,1.9,2,5.3,2,8.2c0,1.6-3.9,0.1-4.9,0.1c0.8-2.6,1.3-0.6,2.2-2C355.9,115.7,355,105.3,358.2,106.8L358.2,106.8
	L358.2,106.8z M359.3,106.8C359.3,107,358.9,105.8,359.3,106.8L359.3,106.8z M387.5,107.3C389.7,111,385.7,104.4,387.5,107.3
	L387.5,107.3z M427.3,108.2C427.3,107.8,427.4,106.6,427.3,108.2C427.3,108.4,427.3,108,427.3,108.2L427.3,108.2z M391.2,107.6
	C387.8,109.5,390.9,107.7,391.2,107.6C391,107.7,391.2,107.6,391.2,107.6L391.2,107.6z M361.9,108C362.4,108.5,360.7,107,361.9,108
	C362.1,108.2,361.9,108,361.9,108z M391.4,108.3c0,5-5.4,4.5-5.4,4.3C386,109.9,391.4,108.6,391.4,108.3L391.4,108.3z M388.5,108.6
	C388.5,108.4,388.7,109.1,388.5,108.6C388.6,108.8,388.5,108.4,388.5,108.6L388.5,108.6z M362.8,108.7L362.8,108.7z M427.4,108.7
	L427.4,108.7C427.3,108.8,427.4,108.7,427.4,108.7L427.4,108.7z M365.6,110.2c3.2,1.6-3.2,4.7-4.2,4.6c-0.1-0.5-0.3-0.9-0.5-1.4
	C361,109.6,362.6,108.7,365.6,110.2L365.6,110.2z M427.2,109C427.3,109.2,427.1,108.7,427.2,109C427.3,109.1,427.2,109,427.2,109
	L427.2,109z M323.5,109.1L323.5,109.1z M325.7,109.5C325.7,109.6,325.5,110.2,325.7,109.5C325.8,109.4,325.7,109.5,325.7,109.5
	L325.7,109.5z M427.7,109.6C427.8,109.7,427.6,109.2,427.7,109.6C427.8,109.6,427.7,109.5,427.7,109.6z M324,109.6L324,109.6z
	 M330.3,110C340.6,111,319.1,108.9,330.3,110L330.3,110z M323.6,111C322.7,120.8,323.6,110.8,323.6,111
	C323.5,111.6,323.6,110.4,323.6,111L323.6,111z M427.7,113.5C428.4,122.2,427.5,103.2,427.7,113.5L427.7,113.5z M366.3,110
	L366.3,110z M416.5,110.5C411.8,115.1,417.2,109.6,416.5,110.5C416.4,110.5,416.6,110.4,416.5,110.5z M413.2,110.4L413.2,110.4z
	 M412.8,110.7C410.2,106.7,412.4,109.9,412.8,110.7C412.9,110.8,412.7,110.6,412.8,110.7L412.8,110.7z M341,111.2
	C347.8,111.8,330.4,110.1,341,111.2C342.2,111.3,339.8,111,341,111.2L341,111.2z M413.7,110.9L413.7,110.9z M416.6,112.1
	C416.9,117.2,414,114.3,416.6,112.1L416.6,112.1z M333.9,112.1C333.7,114.8,334.3,108.5,333.9,112.1
	C333.9,112.6,333.9,111.7,333.9,112.1L333.9,112.1z M406.5,111L406.5,111z M405.4,111.2c0.2,0.8-8.1,0.8-8.3,0.8
	C391.1,113.3,405.4,111,405.4,111.2C405.5,111.6,405.3,110.9,405.4,111.2L405.4,111.2z M412.9,112.6c0.2,3.6-1.5,4.3-5.5,3.1
	c0.1-1.4,0.1-2.7-0.2-4.1C409.1,111,413.9,112.4,412.9,112.6L412.9,112.6z M341.4,111.6c5.9,0.6,0.5,4.1-3.4,4.2
	C336.8,111.5,338,111.3,341.4,111.6L341.4,111.6z M345.4,111.4L345.4,111.4z M407,111.5L407,111.5z M344.8,111.7L344.8,111.7z
	 M406.1,112.8c0.8,11.9-4.7,11.4-12,2.7c0-0.8,0-1.5-0.1-2.3C394.4,114.2,405.9,109.1,406.1,112.8
	C406.2,113.4,406.1,112.2,406.1,112.8L406.1,112.8z M350.3,112.1L350.3,112.1z M345.9,112C345.7,112.4,345.9,112,345.9,112
	L345.9,112z M396,112.2L396,112.2C396,112.3,395.9,111.9,396,112.2L396,112.2z M349.4,112.5C364.4,114.1,336.5,111.2,349.4,112.5
	C351,112.6,347.7,112.3,349.4,112.5z M354.6,112.4L354.6,112.4z M392.9,112.4L392.9,112.4z M392.5,112.7L392.5,112.7z M393.8,112.8
	L393.8,112.8z M417.2,113.3C417.2,113.2,417.3,112.3,417.2,113.3C417.2,113.5,417.2,113.2,417.2,113.3L417.2,113.3z M355.3,112.9
	L355.3,112.9z M389.5,113L389.5,113z M392.5,113.5C392.5,119,392.4,111.8,392.5,113.5C392.5,113.7,392.5,113.3,392.5,113.5
	L392.5,113.5z M389.5,113.8L389.5,113.8z M386,113.7C385.7,114.1,386.2,113.4,386,113.7C386,113.7,386.1,113.6,386,113.7L386,113.7z
	 M417.2,116C418.1,115.3,418.1,115.2,417.2,116L417.2,116z M365.2,115C364.3,115.2,365.3,114.9,365.2,115
	C365,115,365.2,114.9,365.2,115L365.2,115z M364.7,115.2L364.7,115.2z M354.5,115.4C353.4,115.7,354.7,115.3,354.5,115.4
	C354.4,115.4,354.5,115.3,354.5,115.4L354.5,115.4z M356.9,115.5L356.9,115.5z M353.9,115.7c-0.3,0.5-8,0.1-8,0.3
	C345.9,115.4,353.7,116,353.9,115.7L353.9,115.7z M361.3,115.6C361.3,115.7,361.2,115.3,361.3,115.6
	C361.3,115.6,361.3,115.5,361.3,115.6L361.3,115.6z M390.1,115.6C390,115.5,389.9,115.3,390.1,115.6
	C390.1,115.7,390,115.5,390.1,115.6L390.1,115.6z M344.1,115.7L344.1,115.7z M345.3,115.7L345.3,115.7z M393.2,115.8L393.2,115.8z
	 M364.8,115.8L364.8,115.8z M389.5,115.8C390.4,116.8,382.7,110.3,389.5,115.8L389.5,115.8z M355.2,115.8
	C354.4,116.1,355.3,115.8,355.2,115.8C355,115.9,355.2,115.8,355.2,115.8L355.2,115.8z M343.6,116L343.6,116z M386,116L386,116z
	 M395.6,116L395.6,116z M356.9,116.1L356.9,116.1z M360.3,116.2L360.3,116.2z M391.1,116.1C391,116,390.9,115.7,391.1,116.1
	C391.2,116.2,391.1,116,391.1,116.1L391.1,116.1z M413.4,116.1L413.4,116.1z M345.8,116.2L345.8,116.2z M354,116.4
	c0,0.7-8.1,1.1-7.9,1.2c-0.1-0.4-0.1-0.8-0.2-1.2C348.5,115.8,352.3,116.5,354,116.4L354,116.4z M394,116.3c0,8.7-7.5,1.4-8.8,3.5
	C385.5,118.9,394,118.2,394,116.3L394,116.3z M412.9,116.3L412.9,116.3z M417.1,116.2C416.8,116.7,417.2,116,417.1,116.2
	C417.1,116.3,417.1,116.1,417.1,116.2z M344.6,116.2L344.6,116.2z M388.8,116.2C392.1,116.6,381.2,115.3,388.8,116.2L388.8,116.2z
	 M364.9,116.5c0.2,1-4.9,4-5.9,3C355.2,115.2,364.9,116.8,364.9,116.5C364.9,116.8,364.8,116.3,364.9,116.5L364.9,116.5z
	 M416.7,116.4L416.7,116.4z M427.5,116.4L427.5,116.4z M323.2,116.5L323.2,116.5z M337.9,116.5L337.9,116.5z M343.7,117.2
	c0.2,1.2-5.5,2.3-5.6,0.4C338.4,117.4,343.3,114.9,343.7,117.2C343.7,117.6,343.6,116.9,343.7,117.2L343.7,117.2z M357.4,116.4
	L357.4,116.4z M407.3,116.5L407.3,116.5z M413.9,116.6L413.9,116.6z M427.7,116.6L427.7,116.6z M325.6,116.7L325.6,116.7z
	 M412.6,116.7c1.1,0.2-0.9,8.6-1.3,8.6c-1.7-0.5-3.5-1-5.2-1.6C401.2,118.7,410.3,116.3,412.6,116.7L412.6,116.7L412.6,116.7z
	 M417.6,116.7L417.6,116.7z M354.5,116.8L354.5,116.8z M357,116.8L357,116.8z M358.3,116.9L358.3,116.9z M413.4,117.3
	C413.4,117.2,413.6,116.4,413.4,117.3C413.4,117.5,413.5,117.2,413.4,117.3L413.4,117.3z M416.7,116.9c0-0.3-1.2,9.7-1.9,9.5
	C406.8,124.1,416.7,116.1,416.7,116.9L416.7,116.9z M417.2,118c-0.2,3-0.7,5.9-1.6,8.7C416,126.7,417.3,114.1,417.2,118
	C417.1,119.4,417.2,117.4,417.2,118L417.2,118z M428,116.9L428,116.9z M323.7,117L323.7,117z M354.1,117.1c-2.7,0.5-5.4,0.8-8.1,1.1
	C346.1,118.3,354.2,116.6,354.1,117.1C354,117.3,354.1,117.1,354.1,117.1L354.1,117.1z M427.6,118.8c-0.2,3.7-0.9,7.4-2.1,10.9
	C426.2,129.4,428,113.5,427.6,118.8C427.4,121.9,427.7,118,427.6,118.8L427.6,118.8z M325.6,118.1
	C326,125.1,325.3,113.9,325.6,118.1C325.6,118.7,325.5,117.3,325.6,118.1L325.6,118.1z M326.2,119.6
	C326.4,121.4,325.8,114.5,326.2,119.6C326.2,120,326.2,119.2,326.2,119.6L326.2,119.6z M323.5,118.5
	C323.9,124.1,323.3,114.1,323.5,118.5C323.6,119.2,323.5,117.9,323.5,118.5L323.5,118.5z M355.4,117.3L355.4,117.3z M357,117.5
	L357,117.5z M365.6,118L365.6,118z M413.5,117.9L413.5,117.9C413.4,118,413.5,117.9,413.5,117.9z M345.4,117.9L345.4,117.9z
	 M385.7,118L385.7,118z M344.3,118.3L344.3,118.3z M413.3,118.9C412.2,133.1,413.3,118.8,413.3,118.9
	C413.3,120.1,413.4,118.5,413.3,118.9L413.3,118.9z M346,118.5L346,118.5z M389.5,118.8C389.7,119.2,388.9,117.7,389.5,118.8
	L389.5,118.8z M360.6,119.6L360.6,119.6z M366,119.6C366.7,121.7,365.4,118.2,366,119.6C366,119.8,366,119.6,366,119.6L366,119.6z
	 M384.7,120C384.9,119.9,384.3,119.6,384.7,120L384.7,120z M358.1,120.2C358.4,120.9,357.9,119.8,358.1,120.2L358.1,120.2z
	 M393,120.1C393.9,120.4,392,119.7,393,120.1L393,120.1z M361,120.7C362.8,124.1,358.6,116.5,361,120.7
	C361.4,121.5,360.8,120.4,361,120.7L361,120.7z M366.5,120.5c1.6,2.2,0,5.9,0,8.1c-1.2,2.1-6.4-5.3-6.2-5.5
	C361.2,122.1,366,119.8,366.5,120.5C366.7,120.8,366.3,120.3,366.5,120.5L366.5,120.5z M326.2,120.6
	C321.8,125.1,327.3,118.4,326.2,120.6C326.2,120.8,326.3,120.7,326.2,120.6L326.2,120.6z M386.2,121.1c0.2-0.2-1.1,4.3-3.9,5.9
	c-0.5-0.9-0.9-1.8-1.4-2.7C381,122.2,384.6,120.2,386.2,121.1L386.2,121.1z M395.2,120.5C396,120.7,394.3,120.1,395.2,120.5
	L395.2,120.5z M323.5,120.6C323.6,120.7,323.3,120.3,323.5,120.6C323.6,120.7,323.5,120.6,323.5,120.6L323.5,120.6z M394.5,120.9
	c1.8,0.6,10.4,2.9,10.4,2.8C404.9,139.7,388.1,118.9,394.5,120.9L394.5,120.9z M324,121.1C324.1,121.3,323.9,120.8,324,121.1
	C324.1,121.2,324,121.1,324,121.1L324,121.1z M356.2,121.4C355.9,121.9,356.4,121.2,356.2,121.4
	C356.2,121.6,356.3,121.4,356.2,121.4L356.2,121.4z M361.8,121.6C362.7,123.9,361.1,120.3,361.8,121.6
	C361.8,121.8,361.6,121.4,361.8,121.6L361.8,121.6z M323.8,122.2L323.8,122.2C323.8,122.4,323.9,122.2,323.8,122.2L323.8,122.2z
	 M405.9,122.7C405.1,125.5,406.5,120,405.9,122.7C405.8,123.1,405.9,122.3,405.9,122.7L405.9,122.7z M389,122.6L389,122.6
	C389.1,122.7,389,122.6,389,122.6L389,122.6z M324,122.9L324,122.9C323.9,123,324,122.8,324,122.9L324,122.9z M368.7,122.9
	C370.2,126.9,368.8,123.2,368.7,122.9L368.7,122.9z M390.2,123.5c9.1,5.4-12.6,13.2-13.8,11.4c-0.1-0.5-0.1-1-0.1-1.4
	C377.9,133,391.9,124.5,390.2,123.5L390.2,123.5L390.2,123.5z M359.1,123.4C355.4,126.6,359.4,123,359.1,123.4
	C358.9,123.6,359.1,123.4,359.1,123.4L359.1,123.4z M391,123.4L391,123.4z M369.6,123.6c1,0.7,4.3,7.8,1.4,7.8
	c-1.4-0.4-2.7-0.9-3.9-1.6C367.1,128.1,368.2,122.7,369.6,123.6C370,123.9,369.3,123.5,369.6,123.6L369.6,123.6z M405.4,123.6
	L405.4,123.6z M359.9,124.6c5.3,7.9,6.9,6.1-0.2,15.3c-0.2,0.3-3-2-2.9-2.1C361.9,131.7,360.9,126.1,359.9,124.6
	C360.2,125.1,359.6,124.1,359.9,124.6L359.9,124.6z M380.8,124.2L380.8,124.2z M356.5,124.1L356.5,124.1z M405.9,124.1L405.9,124.1z
	 M405.3,124.5C402.7,133.1,404.2,128.9,405.3,124.5C404.8,126.3,405.4,124.4,405.3,124.5L405.3,124.5z M356.5,124.6
	c0-0.6-7.4,4.6-7.7,4C348.4,127.7,356.5,124.8,356.5,124.6L356.5,124.6z M409.1,125.3c9.1,2.8,1.6,2,1.9,9.9
	C411,136.3,395.3,121,409.1,125.3C410.6,125.9,407.5,124.9,409.1,125.3L409.1,125.3z M345.3,124.7L345.3,124.7z M381.2,125.9
	c2.3,4.5,1.1,6-4.8,6C375.7,128.8,378.2,120.1,381.2,125.9C381.6,126.7,380.8,125.3,381.2,125.9L381.2,125.9z M357.4,126
	c3.2,5,5.2,6.8-1.6,11.2c-2.1-2-5.7-5.4-6.5-8.3C349.3,128.7,356.2,124.2,357.4,126C358.2,127.4,357,125.6,357.4,126L357.4,126z
	 M373.5,125.2C373.2,125.7,373.7,124.7,373.5,125.2C373.5,125.3,373.6,125.1,373.5,125.2z M376,125.3L376,125.3z M372.8,127
	C371.6,132.3,374.1,121.7,372.8,127C372.6,127.9,373.1,125.9,372.8,127L372.8,127z M393.9,125.5C394.6,126,393.1,124.8,393.9,125.5
	C394.1,125.6,393.8,125.4,393.9,125.5L393.9,125.5z M375,125.6C372.4,132,373.6,125.4,375,125.6L375,125.6z M411.8,125.6
	C411.9,125.8,411.5,125.1,411.8,125.6C411.8,125.7,411.7,125.5,411.8,125.6L411.8,125.6z M375.8,127.2
	C375.9,134.1,375.8,121.8,375.8,127.2C375.8,128.1,375.8,126.1,375.8,127.2L375.8,127.2z M397.3,127.7c9.6,5.8-9.6,11.2-7.8,13.1
	C385,134.3,389.4,123.1,397.3,127.7C399,128.8,395.6,126.7,397.3,127.7z M415.3,126.7C415.4,126.8,415.1,126.3,415.3,126.7
	C415.3,126.8,415.3,126.6,415.3,126.7L415.3,126.7z M415.9,127.2L415.9,127.2z M415.1,128.5c-0.5,1.4-1.9,6.4-3.3,7.2
	C412.1,135.5,416.2,125,415.1,128.5C414.8,129.1,415.3,127.9,415.1,128.5L415.1,128.5z M419.1,128.5c4.9,1.5,1.8,6.9-1.1,10.7
	c-2-0.9-4-2-5.9-3.2C412.5,129,414.6,127.1,419.1,128.5L419.1,128.5z M335.5,128c0.2,0.6-7.4,2.2-7.1,2.2
	C328.2,130.2,335.3,127.6,335.5,128L335.5,128z M367.2,129C365.7,131.6,368.8,126.5,367.2,129C366.9,129.4,367.5,128.4,367.2,129
	L367.2,129z M383.1,128.6L383.1,128.6z M335.7,128.6c1.4,4.1,2.9,8.2-4.2,8.2c-0.8,0-2.1-5.5-2.6-6.2
	C328.8,130.7,335.6,128.1,335.7,128.6C335.9,129.4,335.6,128.5,335.7,128.6L335.7,128.6z M423.4,129.4L423.4,129.4z M423,129.6
	c0,0.6-4.5,10.1-4.6,10C418.6,139.9,422.9,127.5,423,129.6L423,129.6z M372.5,129.8L372.5,129.8z M425.3,129.8L425.3,129.8z
	 M383.7,130.2C383.8,130.4,383.3,129.4,383.7,130.2C383.9,130.7,383.6,130.2,383.7,130.2L383.7,130.2z M402.1,130.3
	C402.4,130,401.5,130.7,402.1,130.3C402,130.5,402.1,130.4,402.1,130.3L402.1,130.3z M402.5,130.3L402.5,130.3z M373.5,130.4
	c11.8,1.6-6.6,18.4-4.8,14.4c-0.2,0.4-8.9-3.6-8.7-3.8c16.9-9.6,2.1,2.7,8.5,2.7c0.9,0,1.4-7.4,2-8c-1.2,1.8,0.1,6.9-1.4,8.6
	C370,143,370.9,129.9,373.5,130.4C373.9,130.5,373.1,130.4,373.5,130.4L373.5,130.4z M401.3,130.5l-10.8,10.5
	C394.7,138.8,401,131.1,401.3,130.5C398.9,134.7,401.4,130.4,401.3,130.5L401.3,130.5z M328,130.4C326,136.1,328.9,127.2,328,130.4
	C328,130.6,328,130.4,328,130.4L328,130.4z M366,130.6L366,130.6z M375.9,131.2C374.9,132.3,375.9,130,375.9,131.2L375.9,131.2z
	 M402.3,130.7c4.8,7.2,3.1,11.3-9.1,17C385.8,138.1,405,135.2,402.3,130.7C402.3,130.7,402.3,130.7,402.3,130.7z M361.7,131.1
	c0-0.4-5.2,6.8-5.6,6.4C355.3,136.8,361.7,131.6,361.7,131.1L361.7,131.1z M367.7,131.5C377.1,136.1,362.1,128.8,367.7,131.5
	L367.7,131.5z M341.4,131.9L341.4,131.9z M341.4,132.5C340.9,133.6,336.7,134.9,341.4,132.5C341.4,132.6,341.4,132.5,341.4,132.5
	L341.4,132.5z M342.6,134.4c-0.2-0.3,11.1,9.6,5.8,11.6C341,148.5,338.4,127.2,342.6,134.4C344.1,137,342.2,133.9,342.6,134.4
	L342.6,134.4z M364.7,133c-1.2-0.7-3.2,8.6-4.9,7.3C359.8,140.3,364,132.6,364.7,133C364.7,133,364.7,133,364.7,133z M371.5,133
	L371.5,133z M376.2,133.1L376.2,133.1z M385.8,133.7L385.8,133.7z M338.1,134.1c-2,1.2-4.1,2.3-6.3,3.3
	C331.4,137.5,338.1,133.4,338.1,134.1L338.1,134.1z M388.2,139.3c-1,0.4-5.6,5.1-11.4,5.1C375.4,144.5,380.5,124.6,388.2,139.3
	L388.2,139.3z M408.1,134.6c-1.2,2-12.1,15.2-14.5,13.7C395.8,149.7,407.1,136.3,408.1,134.6L408.1,134.6z M408.7,134.3L408.7,134.3
	z M338.9,135.6c-0.1-0.1,16,16.5,4.3,16.5c-2,0-11.9-13.6-11.2-14.3C333,136.7,337.9,133.9,338.9,135.6
	C340.7,138.8,338.6,135.1,338.9,135.6L338.9,135.6z M410.3,135.4c2.5,1.5,4.9,2.9,7.3,4.4c-2,3.7-17.1,20.4-19,18.2
	C394.7,150.2,400.3,129.5,410.3,135.4L410.3,135.4z M411.3,135.6C411.5,135.8,411.1,135.2,411.3,135.6
	C411.4,135.7,411.3,135.6,411.3,135.6L411.3,135.6z M376.3,136c0,0.4-0.1,8.4-0.1,8.4C375.6,144.5,376.3,135.7,376.3,136L376.3,136z
	 M418.1,140.4c-1.5,2.9-16.7,20.7-19.2,18.2C400.9,160.5,416.8,142.7,418.1,140.4C417.9,141,418.2,140.3,418.1,140.4L418.1,140.4z
	 M359.7,140.9C360.2,141.3,358.9,140.4,359.7,140.9L359.7,140.9z M389.4,141.2C389.6,141.7,389.1,140.5,389.4,141.2
	C389.5,141.4,389.4,141.2,389.4,141.2L389.4,141.2z M390,141.8L390,141.8z M388.8,141.9C382.3,145.3,389.3,141.6,388.8,141.9
	L388.8,141.9z M390,142.3L390,142.3z M389.9,142.7C386,146.2,386.1,146.2,389.9,142.7L389.9,142.7z M391.6,145.9
	c-1,0.5-8.1,6.5-14.7,6.4c0.1-1.2,0.2-4.6-0.2-5.6C380.5,145.3,389.8,142.5,391.6,145.9L391.6,145.9z M349.9,145.3L349.9,145.3z
	 M384.7,144.7L384.7,144.7z M368.3,144.9C368.5,145.3,368.1,144.6,368.3,144.9L368.3,144.9z M384,145L384,145z M376.6,145.2
	L376.6,145.2z M368.8,145.5L368.8,145.5z M376.1,145.8L376.1,145.8z M368.4,145.9L368.4,145.9z M370.5,146.2
	c4.5,0.8,6.9,0.2,5.6,6.1c-0.8,0-8.5-0.4-8.5-0.9C368.1,148.9,367.5,145.6,370.5,146.2L370.5,146.2L370.5,146.2z M376.6,146.4
	L376.6,146.4z M376.5,148.6C376.9,158.9,376.3,142.6,376.5,148.6C376.5,149.8,376.4,147.6,376.5,148.6L376.5,148.6z M348.4,147
	c-1.5,1.9-3.1,3.8-4.8,5.6C343.4,152.5,348.4,146.3,348.4,147L348.4,147z M393.1,148.3L393.1,148.3z M393,148.6
	c0,1.4-12.7,4.7-14.3,4.1C379.2,152.9,393,148.9,393,148.6L393,148.6z M393.7,148.8L393.7,148.8z M393.9,150.2
	c0.4-0.1-13.8,8.8-16.8,5.8c-0.1-0.9-0.2-1.8-0.2-2.6C379.8,152.4,392.5,147.6,393.9,150.2L393.9,150.2z M394.8,151.5L394.8,151.5z
	 M394.8,151.9c-5.1,2.7-10.7,4.3-16.4,4.6C379.5,156.5,394.6,151.5,394.8,151.9L394.8,151.9z M367.1,152
	C369.4,152.9,365,151.3,367.1,152C367.3,152.1,367,152,367.1,152L367.1,152z M368.1,152.6c2.6,0.5,5.3,0.8,8,0.8
	c-0.3,0.3,0.1,2.2,0.1,2.7C371,156.6,365.4,152,368.1,152.6C370,153,367.7,152.5,368.1,152.6L368.1,152.6z M376.4,152.6L376.4,152.6
	z M395.7,153.6c4.7,9-15.4,13.9-18.4,10.3c-0.1-2.3-0.2-4.5-0.1-6.8C380.5,154.5,393.6,149.6,395.7,153.6
	C396,154.3,395.3,153,395.7,153.6L395.7,153.6z M343.4,152.9C345.2,155.5,341,150.4,343.4,152.9C343.5,153,343.3,152.8,343.4,152.9
	L343.4,152.9z M377.8,152.8C376.5,153,377.6,152.8,377.8,152.8L377.8,152.8z M376.9,153.1L376.9,153.1z M376.7,154.8
	C376.8,159.5,376.6,150.1,376.7,154.8C376.7,155.5,376.6,154,376.7,154.8L376.7,154.8z M366,155.3L366,155.3z M366.5,155.9
	L366.5,155.9z M376.5,156.4L376.5,156.4z M374.3,156.6C372.8,156.8,374.1,156.6,374.3,156.6L374.3,156.6z M376.2,156.6L376.2,156.6z
	 M377,156.9L377,156.9z M376.8,159.5C377.2,171.8,376.6,152.2,376.8,159.5C376.8,160.8,376.7,158,376.8,159.5L376.8,159.5z
	 M398.5,158.5L398.5,158.5z M398.5,158.9c0,5.4-19.5,2.9-21.2,5.5C378.4,162.7,398.4,161.2,398.5,158.9L398.5,158.9z M399.1,159
	C399.2,159.2,398.9,158.6,399.1,159C399,159,399,158.9,399.1,159L399.1,159z M377,164.5L377,164.5z M363.6,165.4L363.6,165.4z
	 M364.1,166L364.1,166z M367.4,166.4L367.4,166.4z M369.1,166.6C366.7,164.6,369.6,167.1,369.1,166.6
	C369.1,166.7,369,166.6,369.1,166.6L369.1,166.6z M370.7,166.8c-0.5-0.1,9.5,0.3,4.1,0.3C368.6,166.7,367.3,166.6,370.7,166.8
	L370.7,166.8z"/>
<path class="st1" d="M325.5,140C315.7,145.1,335.2,135,325.5,140L325.5,140z"/>
<text transform="matrix(1 0 0 1 98.68 139.93)" class="st1 st2 st3">Help!</text>
</svg>
