<svg id="c9c41fb6-794a-4375-bf79-a9e3782f9d79" data-name="76e190db-5878-42d5-b50e-4850749446f7" xmlns="http://www.w3.org/2000/svg" viewBox="0 0 539 379.87"><title>chat</title><g id="b0230860-b6cd-47c1-af26-cf8399f7e203" data-name="96b61a7f-4977-43c2-b1e5-c258c5f53e51"><rect id="b1388bea-9732-44c0-8273-5d181fe2b4d2" data-name="3d5e84c8-2448-4d91-b583-044c69ad4866" width="539" height="283.44" rx="18.33" ry="18.33" style="fill:#242623"/><rect id="dbc87f9c-820c-4317-b6f2-f53bd627aabe" data-name="c9ef5085-272d-4259-b359-6184d3c7549d" x="250.94" y="278.8" width="55.76" height="85.96" style="fill:#242623"/><rect id="f125d082-9677-4669-b6d9-fdd38fd92f73" data-name="c1dcb643-89dd-481e-b969-18c61b1f944d" x="180.04" y="361.28" width="197.48" height="18.59" style="fill:#242623"/><path id="9d380f3d-8ae5-4b50-9947-9036e11c4ede" data-name="193f4b19-c14d-45bb-86da-5024e1b1cd5f" d="M524.69,264.85h3.19a4,4,0,0,1,4,4h0a4,4,0,0,1-4,4h-3.19a4,4,0,0,1-4-4h0A4,4,0,0,1,524.69,264.85Z" transform="translate(-9.24)" style="fill:#e87722"/></g><path d="M269,92l-96-1.26a0.59,0.59,0,0,0-.44.19l-6.34,6.94a0.59,0.59,0,0,1-1-.58l2.1-6.29a0.59,0.59,0,0,0,0-.21l-2.5-51.09a9.69,9.69,0,0,1,9.68-10.16h95.2A11.34,11.34,0,0,1,281,40.84V80.09A11.88,11.88,0,0,1,269,92Z" transform="translate(-9.24)" style="fill:#e87722"/><path d="M300.06,160.5l96-1.26a0.59,0.59,0,0,1,.44.19l6.34,6.94a0.59,0.59,0,0,0,1-.58l-2.1-6.29a0.59,0.59,0,0,1,0-.21l2.5-51.09A9.69,9.69,0,0,0,394.56,98h-95.2A11.34,11.34,0,0,0,288,109.37v39.25A11.88,11.88,0,0,0,300.06,160.5Z" transform="translate(-9.24)" style="fill:#e87722"/><path d="M266.7,229l-96-1.26a0.59,0.59,0,0,0-.44.19l-6.34,6.94a0.59,0.59,0,0,1-1-.58L165,228a0.59,0.59,0,0,0,0-.21l-2.5-51.09a9.69,9.69,0,0,1,9.68-10.16h95.2a11.34,11.34,0,0,1,11.34,11.34v39.25A11.88,11.88,0,0,1,266.7,229Z" transform="translate(-9.24)" style="fill:#e87722"/><text transform="translate(201.5 82.04)" style="font-size:59px;font-family:Montserrat">?</text><text transform="translate(326 147.04)" style="font-size:59px;font-family:Montserrat">!</text><text transform="translate(201.5 183.24) rotate(90)" style="font-size:59px;font-family:Montserrat">:)</text></svg>