<svg id="cbf5fe62-df6a-4bc1-8cb1-6bb1cdeef835" data-name="76e190db-5878-42d5-b50e-4850749446f7" xmlns="http://www.w3.org/2000/svg" viewBox="0 0 539 379.87"><title>error</title><g id="09094246-24ef-47ee-9df6-1299fc6a8e68" data-name="96b61a7f-4977-43c2-b1e5-c258c5f53e51"><rect id="ffd57724-212e-4537-a23e-dcd3f2c14839" data-name="3d5e84c8-2448-4d91-b583-044c69ad4866" width="539" height="283.44" rx="18.33" ry="18.33" style="fill:#242623"/><rect id="894e5f7f-8ba2-4061-9a80-9eae3a97191a" data-name="c9ef5085-272d-4259-b359-6184d3c7549d" x="250.94" y="278.8" width="55.76" height="85.96" style="fill:#242623"/><rect id="71461483-1a9e-4f0b-b0d2-1cf6ce48e507" data-name="c1dcb643-89dd-481e-b969-18c61b1f944d" x="180.04" y="361.28" width="197.48" height="18.59" style="fill:#242623"/><path id="0ba364cc-02a7-4c4e-a352-261ade8f2985" data-name="193f4b19-c14d-45bb-86da-5024e1b1cd5f" d="M524.69,264.85h3.19a4,4,0,0,1,4,4h0a4,4,0,0,1-4,4h-3.19a4,4,0,0,1-4-4h0A4,4,0,0,1,524.69,264.85Z" transform="translate(-9.24)" style="fill:#e87722"/></g><polygon points="278.78 26.75 386.46 213.25 171.1 213.25 278.78 26.75" style="fill:#e87722"/><rect x="268.78" y="75.75" width="20" height="84" rx="9.5" ry="9.5" style="fill:#242623"/><rect x="268.78" y="165.43" width="20" height="20" rx="10" ry="10" style="fill:#242623"/></svg>