<svg id="9ae5d22f-d549-456b-99fa-b84fbcd9b086" data-name="76e190db-5878-42d5-b50e-4850749446f7" xmlns="http://www.w3.org/2000/svg" viewBox="0 0 539 379.87"><title>lan</title><g id="d5b13b27-0473-4fa5-b8f2-c3a2ca41a928" data-name="96b61a7f-4977-43c2-b1e5-c258c5f53e51"><rect id="e3401ec1-cdab-4d24-b2cc-0a8a2b4f039f" data-name="3d5e84c8-2448-4d91-b583-044c69ad4866" width="539" height="283.44" rx="18.33" ry="18.33" style="fill:#242623"/><rect id="0ca961fd-5098-4ee2-8877-d4fe24882f63" data-name="c9ef5085-272d-4259-b359-6184d3c7549d" x="250.94" y="278.8" width="55.76" height="85.96" style="fill:#242623"/><rect id="d83e209e-d9bc-4d0f-94b9-d7d40bbf4c33" data-name="c1dcb643-89dd-481e-b969-18c61b1f944d" x="180.04" y="361.28" width="197.48" height="18.59" style="fill:#242623"/><path id="fc9dec4d-2655-4d7b-8634-46aa6de6abed" data-name="193f4b19-c14d-45bb-86da-5024e1b1cd5f" d="M524.69,264.85h3.19a4,4,0,0,1,4,4h0a4,4,0,0,1-4,4h-3.19a4,4,0,0,1-4-4h0A4,4,0,0,1,524.69,264.85Z" transform="translate(-9.24)" style="fill:#e87722"/></g><g id="a56ff495-f8f6-4d06-9fb2-1269a6435bce" data-name="c5a1a272-f500-40ef-a2dc-aa155e1b5c22"><rect id="890f6c67-ff97-4ec3-af10-84f8b2e69540" data-name="c151272d-0fa4-4f63-a1dc-324c2770c8df" x="68.64" y="74.06" width="59.13" height="31.09" rx="2.01" ry="2.01" style="fill:#e87722"/><rect id="6cefaa2a-a6f8-43fb-8af3-d72c4bf2692e" data-name="dba3545f-af80-4a8c-b135-e54fe6d8d507" x="96.17" y="104.64" width="6.12" height="9.43" style="fill:#e87722"/><rect id="6f7f8dbd-253f-4fbd-a7f7-be0398b207be" data-name="782b0b5c-12cd-452d-b29c-5d3c9707a2b7" x="88.39" y="113.69" width="21.66" height="2.04" style="fill:#e87722"/><path id="f1d8d13d-7f72-404b-ab92-cdad15e1fcb6" data-name="ec90332b-c42a-418b-b00f-a0fbbb7b60f4" d="M134.42,103.11h0.35a0.44,0.44,0,0,1,.44.44h0a0.44,0.44,0,0,1-.44.44h-0.35a0.44,0.44,0,0,1-.44-0.44h0A0.44,0.44,0,0,1,134.42,103.11Z" transform="translate(-9.24)" style="fill:#e87722"/></g><g id="9718b31c-b4fc-4245-9680-6644d9e7ce0a" data-name="c5a1a272-f500-40ef-a2dc-aa155e1b5c22"><rect id="1ada450c-e532-4ed0-a955-144915bd619e" data-name="c151272d-0fa4-4f63-a1dc-324c2770c8df" x="150.48" y="178.35" width="59.13" height="31.09" rx="2.01" ry="2.01" style="fill:#e87722"/><rect id="7f130fa3-4b25-4be0-adc1-896a58437bfd" data-name="dba3545f-af80-4a8c-b135-e54fe6d8d507" x="178" y="208.94" width="6.12" height="9.43" style="fill:#e87722"/><rect id="5e316022-e77d-4d79-bc7a-0c2e463a8ac1" data-name="782b0b5c-12cd-452d-b29c-5d3c9707a2b7" x="170.23" y="217.98" width="21.66" height="2.04" style="fill:#e87722"/><path id="cad46816-4a80-4b17-8fe6-14a07c5842e3" data-name="ec90332b-c42a-418b-b00f-a0fbbb7b60f4" d="M216.26,207.41h0.35a0.44,0.44,0,0,1,.44.44h0a0.44,0.44,0,0,1-.44.44h-0.35a0.44,0.44,0,0,1-.44-0.44h0A0.44,0.44,0,0,1,216.26,207.41Z" transform="translate(-9.24)" style="fill:#e87722"/></g><g id="6ec3c0f4-b76d-418e-b55b-3def91f8e655" data-name="c5a1a272-f500-40ef-a2dc-aa155e1b5c22"><rect id="fd5c3707-24dd-487a-b9d3-7aa505798dfc" data-name="c151272d-0fa4-4f63-a1dc-324c2770c8df" x="381.08" y="40.2" width="59.13" height="31.09" rx="2.01" ry="2.01" style="fill:#e87722"/><rect id="a3ab0224-41d5-4683-8b1b-e18a7589d699" data-name="dba3545f-af80-4a8c-b135-e54fe6d8d507" x="408.61" y="70.79" width="6.12" height="9.43" style="fill:#e87722"/><rect id="c16e5841-50e4-4c50-bf7b-2a823231dcd4" data-name="782b0b5c-12cd-452d-b29c-5d3c9707a2b7" x="400.83" y="79.84" width="21.66" height="2.04" style="fill:#e87722"/><path id="4ab26524-31b0-4b0d-9000-3b5beba370d6" data-name="ec90332b-c42a-418b-b00f-a0fbbb7b60f4" d="M446.87,69.26h0.35a0.44,0.44,0,0,1,.44.44h0a0.44,0.44,0,0,1-.44.44h-0.35a0.44,0.44,0,0,1-.44-0.44h0A0.44,0.44,0,0,1,446.87,69.26Z" transform="translate(-9.24)" style="fill:#e87722"/></g><g id="0dbefc63-b618-413c-acc1-007cef30899d" data-name="c5a1a272-f500-40ef-a2dc-aa155e1b5c22"><rect id="5b316ea7-0291-4a08-91c2-f586efe58ba1" data-name="c151272d-0fa4-4f63-a1dc-324c2770c8df" x="358.4" y="157.52" width="59.13" height="31.09" rx="2.01" ry="2.01" style="fill:#e87722"/><rect id="aae78863-a503-47df-b6c9-920b2bc0a0d3" data-name="dba3545f-af80-4a8c-b135-e54fe6d8d507" x="385.93" y="188.1" width="6.12" height="9.43" style="fill:#e87722"/><rect id="c9f39bd0-ede1-4f64-b32c-dccaa6e43b1c" data-name="782b0b5c-12cd-452d-b29c-5d3c9707a2b7" x="378.15" y="197.15" width="21.66" height="2.04" style="fill:#e87722"/><path id="62d840b6-13b5-401f-8cbd-5fae34621dfa" data-name="ec90332b-c42a-418b-b00f-a0fbbb7b60f4" d="M424.19,186.57h0.35a0.44,0.44,0,0,1,.44.44h0a0.44,0.44,0,0,1-.44.44h-0.35a0.44,0.44,0,0,1-.44-0.44h0A0.44,0.44,0,0,1,424.19,186.57Z" transform="translate(-9.24)" style="fill:#e87722"/></g><g id="1ab5ecf9-bb70-454b-9dc8-60db95a7b4af" data-name="c5a1a272-f500-40ef-a2dc-aa155e1b5c22"><rect id="96356cf0-d0bf-45ac-9bed-21f427e67c30" data-name="c151272d-0fa4-4f63-a1dc-324c2770c8df" x="202.56" y="62.52" width="123.13" height="64.75" rx="4.19" ry="4.19" style="fill:#e87722"/><rect id="56f13274-f0a8-4c75-b856-edfeb0e43ac5" data-name="dba3545f-af80-4a8c-b135-e54fe6d8d507" x="259.89" y="126.21" width="12.74" height="19.64" style="fill:#e87722"/><rect id="2fdbc2ca-4be9-4d99-8f41-6cf8dc2edf1e" data-name="782b0b5c-12cd-452d-b29c-5d3c9707a2b7" x="243.69" y="145.05" width="45.11" height="4.25" style="fill:#e87722"/><path id="06bc9045-fd45-41e8-bbe8-311eef882a22" data-name="ec90332b-c42a-418b-b00f-a0fbbb7b60f4" d="M329.55,123h0.73a0.91,0.91,0,0,1,.91.91h0a0.91,0.91,0,0,1-.91.91h-0.73a0.91,0.91,0,0,1-.91-0.91h0A0.91,0.91,0,0,1,329.55,123Z" transform="translate(-9.24)" style="fill:#e87722"/></g></svg>