<svg id="c03ff2be-32a0-4e76-9bb7-94079c4445fb" data-name="76e190db-5878-42d5-b50e-4850749446f7" xmlns="http://www.w3.org/2000/svg" viewBox="0 0 539 379.87"><title>lingue</title><g id="c278d01c-fc1b-4a2e-af26-11ed7dbbd241" data-name="96b61a7f-4977-43c2-b1e5-c258c5f53e51"><rect id="ccf325d6-68b7-4fcf-b198-0fee6d22c4a2" data-name="3d5e84c8-2448-4d91-b583-044c69ad4866" width="539" height="283.44" rx="18.33" ry="18.33" style="fill:#242623"/><rect id="722142e4-1302-4c9c-8fd3-88e00b6bd76f" data-name="c9ef5085-272d-4259-b359-6184d3c7549d" x="250.94" y="278.8" width="55.76" height="85.96" style="fill:#242623"/><rect id="a541bba4-29ef-4b47-9fd9-482660667be9" data-name="c1dcb643-89dd-481e-b969-18c61b1f944d" x="180.04" y="361.28" width="197.48" height="18.59" style="fill:#242623"/><path id="ee60c201-314f-4ef3-ba42-8ab235652671" data-name="193f4b19-c14d-45bb-86da-5024e1b1cd5f" d="M524.69,264.85h3.19a4,4,0,0,1,4,4h0a4,4,0,0,1-4,4h-3.19a4,4,0,0,1-4-4h0A4,4,0,0,1,524.69,264.85Z" transform="translate(-9.24)" style="fill:#e87722"/></g><text transform="translate(83.36 142.03)" style="font-size:59px;fill:#e87722;font-family:Montserrat">h<tspan x="40.06" y="0">ello</tspan></text><text transform="translate(306.7 147.05) rotate(-1.02)" style="font-size:59px;fill:#e87722;font-family:Montserrat">ci<tspan x="49.09" y="0">a</tspan><tspan x="84.01" y="0">o</tspan></text><text transform="matrix(0.91, -0.41, 0.41, 0.91, 266.16, 115.22)" style="font-size:59px;fill:#e87722;font-family:Montserrat">ยก<tspan x="15.34" y="0">h</tspan><tspan x="55.4" y="0">ola!</tspan></text><text transform="translate(257.01 183.44) rotate(19.98)" style="font-size:59px;fill:#e87722;font-family:Montserrat">bonjour </text></svg>