<svg id="acd9633f-d518-44d8-98b8-e8a9a90f2360" data-name="76e190db-5878-42d5-b50e-4850749446f7" xmlns="http://www.w3.org/2000/svg" viewBox="0 0 539 379.87"><title>LOGHI</title><g id="97d94557-a0ab-4557-b440-f9d3fff06842" data-name="96b61a7f-4977-43c2-b1e5-c258c5f53e51"><rect id="54d2f637-a780-4ed5-94a6-c1d74c44e558" data-name="3d5e84c8-2448-4d91-b583-044c69ad4866" width="539" height="283.44" rx="18.33" ry="18.33" style="fill:#242623"/><rect id="b2f69a28-54bf-45d7-9150-a3337a7adcff" data-name="c9ef5085-272d-4259-b359-6184d3c7549d" x="250.94" y="278.8" width="55.76" height="85.96" style="fill:#242623"/><rect id="559174af-96f1-47b1-9baf-46892731d4a2" data-name="c1dcb643-89dd-481e-b969-18c61b1f944d" x="180.04" y="361.28" width="197.48" height="18.59" style="fill:#242623"/><path id="ed2eabfc-db08-4920-96b1-bd27eaed314b" data-name="193f4b19-c14d-45bb-86da-5024e1b1cd5f" d="M524.69,264.85h3.19a4,4,0,0,1,4,4h0a4,4,0,0,1-4,4h-3.19a4,4,0,0,1-4-4h0A4,4,0,0,1,524.69,264.85Z" transform="translate(-9.24)" style="fill:#e87722"/></g><g id="2e1de0fc-3468-47f4-9d30-09fda7d45ec4" data-name="g186"><path id="ddc1535f-0624-4fee-836e-e2c7d6fe9f10" data-name="path188" d="M306.19,132c-0.13-14.72,12-21.78,12.57-22.13-6.84-10-17.48-11.38-21.28-11.54-9.05-.92-17.67,5.33-22.26,5.33s-11.68-5.2-19.19-5.05A28.46,28.46,0,0,0,232,113.16c-10.25,17.79-2.62,44.16,7.37,58.59,4.89,7.06,10.71,15,18.36,14.72,7.37-.29,10.16-4.76,19.06-4.76s11.41,4.76,19.2,4.63,13-7.21,17.8-14.29a64,64,0,0,0,8-16.54c-0.18-.07-15.45-5.93-15.61-23.53" transform="translate(-9.24)" style="fill:#e87722"/></g><path id="e114ab4d-5b6c-46e9-95a5-87a14e0ba0e6" data-name="path190" d="M291.56,88.75c4.06-4.92,6.8-11.76,6-18.57-5.85.23-12.93,3.9-17.13,8.82-3.76,4.35-7.06,11.31-6.16,18,6.52,0.51,13.19-3.32,17.25-8.23" transform="translate(-9.24)" style="fill:#e87722"/><path d="M74.88,95.57l43.87-6V132H74.88V95.57Zm43.87,41.75v41.82l-43.87-6V137.32h43.87Zm4.88-48.4,58.38-8v51H123.56v-43h0.07ZM182,137.32v50.53l-58.38-8V137.4H182v-0.07Z" transform="translate(-9.24)" style="fill:#e87722"/><g id="f67f0ebf-2fad-4c8c-920e-c588428c2a90" data-name="layer1"><path d="M476.49,126.47a48.62,48.62,0,1,0,.93,9.49A48.66,48.66,0,0,0,476.49,126.47Zm-37.45-21a6.38,6.38,0,1,1-.64,4.84A6.47,6.47,0,0,1,439,105.47Zm-46.27,35a6.38,6.38,0,1,1,4.51,1.87A6.47,6.47,0,0,1,392.77,140.46ZM409.23,157a28.8,28.8,0,0,1-7.82-12.36,1.54,1.54,0,0,1-.07-0.49,1.51,1.51,0,0,1,.32-0.92,1.54,1.54,0,0,1,.36-0.34A8.38,8.38,0,0,0,402,129a1.54,1.54,0,0,1-.36-0.34,1.51,1.51,0,0,1-.32-0.92,1.54,1.54,0,0,1,.07-0.49,28.8,28.8,0,0,1,11.69-15.4l5,8.65a18.77,18.77,0,0,0,0,30.83l-5,8.65A28.69,28.69,0,0,1,409.23,157Zm41.5,7.92a6.38,6.38,0,1,1-.64-4.84A6.47,6.47,0,0,1,450.72,164.9Zm6.08-22.51a28.8,28.8,0,0,1-6.79,13,1.54,1.54,0,0,1-.39.31,1.51,1.51,0,0,1-1,.19,1.55,1.55,0,0,1-.47-0.14,8.38,8.38,0,0,0-12,6.92,1.54,1.54,0,0,1-.12.48,1.51,1.51,0,0,1-.64.74,1.55,1.55,0,0,1-.46.18,28.8,28.8,0,0,1-19.18-2.43l5-8.65a18.77,18.77,0,0,0,26.7-15.42h10A28.66,28.66,0,0,1,456.8,142.39Zm-9.3-8A18.77,18.77,0,0,0,420.81,119l-5-8.65A28.8,28.8,0,0,1,435,107.89a1.55,1.55,0,0,1,.46.18,1.51,1.51,0,0,1,.64.74,1.54,1.54,0,0,1,.12.48,8.38,8.38,0,0,0,12,6.92,1.55,1.55,0,0,1,.47-0.14,1.51,1.51,0,0,1,1,.19,1.55,1.55,0,0,1,.39.31,28.8,28.8,0,0,1,7.49,17.83h-10Z" transform="translate(-9.24)" style="fill:#e87722"/></g></svg>