<svg id="51cad0bd-448c-4151-94d3-da2b00a682c8" data-name="76e190db-5878-42d5-b50e-4850749446f7" xmlns="http://www.w3.org/2000/svg" viewBox="0 0 539 379.87"><title>mb</title><g id="089d4e68-37de-4a09-93a3-05efb7233853" data-name="96b61a7f-4977-43c2-b1e5-c258c5f53e51"><rect id="5c3af47c-c361-46cd-a3b3-613500b107c6" data-name="3d5e84c8-2448-4d91-b583-044c69ad4866" width="539" height="283.44" rx="18.33" ry="18.33" style="fill:#242623"/><rect id="8c72a6e4-65fc-48c6-bf2c-2de4a71ee90d" data-name="c9ef5085-272d-4259-b359-6184d3c7549d" x="250.94" y="278.8" width="55.76" height="85.96" style="fill:#242623"/><rect id="67ad404e-214c-4cfb-a857-578840cd7629" data-name="c1dcb643-89dd-481e-b969-18c61b1f944d" x="180.04" y="361.28" width="197.48" height="18.59" style="fill:#242623"/><path id="8f169290-6cb3-4c36-ab9b-18fe50702b6f" data-name="193f4b19-c14d-45bb-86da-5024e1b1cd5f" d="M524.69,264.85h3.19a4,4,0,0,1,4,4h0a4,4,0,0,1-4,4h-3.19a4,4,0,0,1-4-4h0A4,4,0,0,1,524.69,264.85Z" transform="translate(-9.24)" style="fill:#e87722"/></g><rect x="192.32" y="17.5" width="173" height="240" rx="7.7" ry="7.7" style="fill:#e87722"/><rect x="230.25" y="49.5" width="39.25" height="39.25" rx="8.81" ry="8.81" style="fill:#242623"/><rect x="309.88" y="37.5" width="3.5" height="85" style="fill:#242623"/><rect x="315.13" y="37.5" width="3.5" height="85" style="fill:#242623"/><rect x="323.01" y="37.5" width="3.5" height="85" style="fill:#242623"/><rect x="328.26" y="37.5" width="3.5" height="85" style="fill:#242623"/><rect x="209.76" y="174.33" width="87.67" height="3.33" style="fill:#242623"/><rect x="209.76" y="190.33" width="87.67" height="3.33" style="fill:#242623"/><rect x="209.76" y="206.33" width="87.67" height="3.33" style="fill:#242623"/><rect x="209.76" y="222.33" width="87.67" height="3.33" style="fill:#242623"/><rect x="170.43" y="41.33" width="25.33" height="125" rx="7" ry="7" style="fill:#242623"/><rect x="324.76" y="241" width="29.25" height="9.67" style="fill:#242623"/></svg>