<svg id="c02f0f8e-60c4-4d88-8283-60b4a97d4636" data-name="76e190db-5878-42d5-b50e-4850749446f7" xmlns="http://www.w3.org/2000/svg" viewBox="0 0 539 379.87"><title>organize</title><g id="bee4e7a3-e63e-4c27-a480-b8ef65a99d75" data-name="96b61a7f-4977-43c2-b1e5-c258c5f53e51"><rect id="89dcebf9-f5b1-425f-bba1-f42ff3860473" data-name="3d5e84c8-2448-4d91-b583-044c69ad4866" width="539" height="283.44" rx="18.33" ry="18.33" style="fill:#242623"/><rect id="038b6b5f-ea4d-44a9-ae6b-14fc38c5d44b" data-name="c9ef5085-272d-4259-b359-6184d3c7549d" x="250.94" y="278.8" width="55.76" height="85.96" style="fill:#242623"/><rect id="43f60c17-7629-4550-ab17-9e4adad5e7bc" data-name="c1dcb643-89dd-481e-b969-18c61b1f944d" x="180.04" y="361.28" width="197.48" height="18.59" style="fill:#242623"/><path id="cbe86420-627d-443c-84eb-4fb9184a7a5b" data-name="193f4b19-c14d-45bb-86da-5024e1b1cd5f" d="M524.69,264.85h3.19a4,4,0,0,1,4,4h0a4,4,0,0,1-4,4h-3.19a4,4,0,0,1-4-4h0A4,4,0,0,1,524.69,264.85Z" transform="translate(-9.24)" style="fill:#e87722"/></g><rect x="168.45" y="29.67" width="220.67" height="212.67" rx="11.57" ry="11.57" style="fill:#e87722"/><rect x="175.49" y="63" width="206.67" height="41.33" style="fill:#e87722;stroke:#333;stroke-miterlimit:10;stroke-width:2.5248351833636455px"/><rect x="175.49" y="113.72" width="206.67" height="41.33" style="fill:#e87722;stroke:#333;stroke-miterlimit:10;stroke-width:2.5248351833636455px"/><rect x="175.49" y="164.44" width="206.67" height="41.33" style="fill:#e87722;stroke:#333;stroke-miterlimit:10;stroke-width:2.5248351833636455px"/><rect x="265.15" y="78.83" width="27.33" height="14.67" style="fill:#e87722;stroke:#333;stroke-miterlimit:10;stroke-width:2.5248351833636455px"/><rect x="265.15" y="127.05" width="27.33" height="14.67" style="fill:#e87722;stroke:#333;stroke-miterlimit:10;stroke-width:2.5248351833636455px"/><rect x="265.15" y="177.77" width="27.33" height="14.67" style="fill:#e87722;stroke:#333;stroke-miterlimit:10;stroke-width:2.5248351833636455px"/></svg>