<svg id="e5c5afdc-207c-4221-801a-8f936c272221" data-name="76e190db-5878-42d5-b50e-4850749446f7" xmlns="http://www.w3.org/2000/svg" viewBox="0 0 539 379.87"><title>ram</title><g id="77e9c627-d7d2-44c7-9534-3cc7d7ef634a" data-name="96b61a7f-4977-43c2-b1e5-c258c5f53e51"><rect id="855fbd82-23e3-46ad-a0bd-d73956fafbbb" data-name="3d5e84c8-2448-4d91-b583-044c69ad4866" width="539" height="283.44" rx="18.33" ry="18.33" style="fill:#242623"/><rect id="52d84d04-bec5-45ed-bbc2-112bb4d4d267" data-name="c9ef5085-272d-4259-b359-6184d3c7549d" x="250.94" y="278.8" width="55.76" height="85.96" style="fill:#242623"/><rect id="310a5469-38c7-41c9-92eb-5968afe8bfec" data-name="c1dcb643-89dd-481e-b969-18c61b1f944d" x="180.04" y="361.28" width="197.48" height="18.59" style="fill:#242623"/><path id="90dce6f5-7a88-4044-8600-8a67df016247" data-name="193f4b19-c14d-45bb-86da-5024e1b1cd5f" d="M524.69,264.85h3.19a4,4,0,0,1,4,4h0a4,4,0,0,1-4,4h-3.19a4,4,0,0,1-4-4h0A4,4,0,0,1,524.69,264.85Z" transform="translate(-9.24)" style="fill:#e87722"/></g><rect x="107.32" y="87" width="343" height="58" style="fill:#e87722"/><rect x="135.32" y="96" width="25" height="41" style="fill:#242623"/><rect x="172.82" y="96" width="25" height="41" style="fill:#242623"/><rect x="210.32" y="96" width="25" height="41" style="fill:#242623"/><rect x="247.82" y="96" width="25" height="41" style="fill:#242623"/><rect x="314.32" y="96" width="25" height="41" style="fill:#242623"/><rect x="352.08" y="96" width="25" height="41" style="fill:#242623"/><rect x="389.84" y="96" width="25" height="41" style="fill:#242623"/><rect x="107.32" y="145" width="343" height="5.72" style="fill:#fff"/><rect x="103.82" y="109.5" width="7" height="7" style="fill:#242623"/><rect x="446.82" y="109.5" width="7" height="7" style="fill:#242623"/><rect x="316.82" y="145" width="7" height="7" style="fill:#242623"/></svg>