<?xml version="1.0" encoding="utf-8"?>
<!-- Generator: Adobe Illustrator 19.2.1, SVG Export Plug-In . SVG Version: 6.00 Build 0)  -->
<svg version="1.1" id="_x37_6e190db-5878-42d5-b50e-4850749446f7"
	 xmlns="http://www.w3.org/2000/svg" xmlns:xlink="http://www.w3.org/1999/xlink" x="0px" y="0px" viewBox="0 0 562 384"
	 style="enable-background:new 0 0 562 384;" xml:space="preserve">
<style type="text/css">
	.st0{fill:#242623;}
	.st1{fill:#E87722;}
</style>
<title>server</title>
<g id="_x39_6b61a7f-4977-43c2-b1e5-c258c5f53e51">
	<path id="_x33_d5e84c8-2448-4d91-b583-044c69ad4866" class="st0" d="M27.6,0h502.3c10.1,0,18.3,8.2,18.3,18.3v246.8
		c0,10.1-8.2,18.3-18.3,18.3H27.6c-10.1,0-18.3-8.2-18.3-18.3V18.3C9.2,8.2,17.4,0,27.6,0z"/>
	<rect id="c9ef5085-272d-4259-b359-6184d3c7549d" x="260.2" y="278.8" class="st0" width="55.8" height="86"/>
	<rect id="c1dcb643-89dd-481e-b969-18c61b1f944d" x="189.3" y="361.3" class="st0" width="197.5" height="18.6"/>
	<path id="_x31_93f4b19-c14d-45bb-86da-5024e1b1cd5f" class="st1" d="M524.7,264.9h3.2c2.2,0,4,1.8,4,4l0,0c0,2.2-1.8,4-4,4h-3.2
		c-2.2,0-4-1.8-4-4l0,0C520.7,266.6,522.5,264.9,524.7,264.9z"/>
</g>
<circle class="st0" cx="223" cy="172.1" r="26.6"/>
<circle class="st1" cx="237.5" cy="143" r="67.1"/>
<rect x="223.4" y="63.9" class="st1" width="28.1" height="158.1"/>
<rect x="158.4" y="129" transform="matrix(0.7071 -0.7071 0.7071 0.7071 -31.5645 209.7978)" class="st1" width="158.1" height="28.1"/>
<rect x="158.4" y="129" class="st1" width="158.1" height="28.1"/>
<rect x="223.4" y="63.9" transform="matrix(0.7071 -0.7071 0.7071 0.7071 -31.5655 209.8019)" class="st1" width="28.1" height="158.1"/>
<ellipse transform="matrix(0.213 -0.977 0.977 0.213 188.377 408.5845)" class="st1" cx="347.8" cy="87.4" rx="41.9" ry="41.9"/>
<rect x="298.5" y="78.6" transform="matrix(0.213 -0.977 0.977 0.213 188.3624 408.5698)" class="st1" width="98.7" height="17.5"/>
<rect x="298.5" y="78.6" transform="matrix(0.8415 -0.5402 0.5402 0.8415 7.9275 201.742)" class="st1" width="98.7" height="17.5"/>
<rect x="339.1" y="38" transform="matrix(0.213 -0.977 0.977 0.213 188.3673 408.577)" class="st1" width="17.5" height="98.7"/>
<rect x="339" y="38" transform="matrix(0.8415 -0.5402 0.5402 0.8415 7.9295 201.7463)" class="st1" width="17.5" height="98.7"/>
<circle class="st0" cx="347.8" cy="87.4" r="29.9"/>
<circle class="st0" cx="237.5" cy="143" r="50.6"/>
</svg>
