<svg id="0e2d4244-f829-424d-bc7a-5b2048c0db3d" data-name="76e190db-5878-42d5-b50e-4850749446f7" xmlns="http://www.w3.org/2000/svg" viewBox="0 0 539 379.87"><title>task</title><g id="c1cdf4c5-d746-424c-9ac8-7ca3099fc7f1" data-name="96b61a7f-4977-43c2-b1e5-c258c5f53e51"><rect id="bb1c9617-72ef-4818-8341-519584fcb9f5" data-name="3d5e84c8-2448-4d91-b583-044c69ad4866" width="539" height="283.44" rx="18.33" ry="18.33" style="fill:#242623"/><rect id="63d8dd98-deec-4762-9244-68a3de46701b" data-name="c9ef5085-272d-4259-b359-6184d3c7549d" x="250.94" y="278.8" width="55.76" height="85.96" style="fill:#242623"/><rect id="5a246691-fe5c-42d8-b23b-00daf868c6e5" data-name="c1dcb643-89dd-481e-b969-18c61b1f944d" x="180.04" y="361.28" width="197.48" height="18.59" style="fill:#242623"/><path id="5a3eb6ab-25e7-4287-bf7e-60363414ae6b" data-name="193f4b19-c14d-45bb-86da-5024e1b1cd5f" d="M524.69,264.85h3.19a4,4,0,0,1,4,4h0a4,4,0,0,1-4,4h-3.19a4,4,0,0,1-4-4h0A4,4,0,0,1,524.69,264.85Z" transform="translate(-9.24)" style="fill:#e87722"/></g><path d="M389.36,152.62h9.88a16.62,16.62,0,0,1,16.62,16.62v42a0,0,0,0,1,0,0H372.52a0,0,0,0,1,0,0V169.46a16.84,16.84,0,0,1,16.84-16.84Z" transform="translate(779.14 363.85) rotate(180)" style="fill:#e87722"/><rect x="395.39" y="160.25" width="26.72" height="33.91" rx="7.71" ry="7.71" style="fill:none;stroke:#e87722;stroke-miterlimit:10;stroke-width:4.497548644450284px"/><rect x="376.98" y="117.59" width="3.82" height="32.78" rx="1.91" ry="1.91" style="fill:#e87722"/><rect x="384.84" y="105.24" width="3.59" height="35.7" rx="1.8" ry="1.8" style="fill:#e87722"/><rect x="391.12" y="123.99" width="3.37" height="25.6" rx="1.68" ry="1.68" style="fill:#e87722"/><g id="7cc2936a-7fd4-4345-a086-b7abdfdaafbc" data-name="1ab5ecf9-bb70-454b-9dc8-60db95a7b4af"><rect id="b4dc6b10-f385-420f-bd12-22dad3c2dd6a" data-name="96356cf0-d0bf-45ac-9bed-21f427e67c30" x="77.43" y="46.55" width="233.66" height="122.88" rx="7.95" ry="7.95" style="fill:#e87722"/><rect id="014bd17e-d577-4e6f-8721-4b3afe8bad64" data-name="56f13274-f0a8-4c75-b856-edfeb0e43ac5" x="186.22" y="167.41" width="24.18" height="37.27" style="fill:#e87722"/><rect id="e2c03934-2195-4091-b448-47fd9683e100" data-name="2fdbc2ca-4be9-4d99-8f41-6cf8dc2edf1e" x="155.48" y="203.16" width="85.61" height="8.07" style="fill:#e87722"/><path id="b3793974-a57c-4f50-8a7d-e16c54706770" data-name="06bc9045-fd45-41e8-bbe8-311eef882a22" d="M310.12,161.32h1.39a1.73,1.73,0,0,1,1.73,1.73h0a1.73,1.73,0,0,1-1.73,1.73h-1.39A1.73,1.73,0,0,1,308.4,163h0a1.73,1.73,0,0,1,1.73-1.73h0Z" transform="translate(-9.24)" style="fill:#e87722"/></g></svg>