<svg id="49278941-8a91-4116-9b75-f01ea87475bc" data-name="76e190db-5878-42d5-b50e-4850749446f7" xmlns="http://www.w3.org/2000/svg" viewBox="0 0 539 379.87"><title>time</title><g id="a3f8c3f4-4874-47d0-ae70-f9776bf00a69" data-name="96b61a7f-4977-43c2-b1e5-c258c5f53e51"><rect id="d4ac2b11-1311-401c-85ed-43fa885a1476" data-name="3d5e84c8-2448-4d91-b583-044c69ad4866" width="539" height="283.44" rx="18.33" ry="18.33" style="fill:#242623"/><rect id="ed6433f5-409b-49cd-be53-41cbc153f46c" data-name="c9ef5085-272d-4259-b359-6184d3c7549d" x="250.94" y="278.8" width="55.76" height="85.96" style="fill:#242623"/><rect id="5ddc95f0-e35e-460f-b250-9b9552133bcb" data-name="c1dcb643-89dd-481e-b969-18c61b1f944d" x="180.04" y="361.28" width="197.48" height="18.59" style="fill:#242623"/><path id="5f4a888d-6b85-4699-88c9-0e0f0188b160" data-name="193f4b19-c14d-45bb-86da-5024e1b1cd5f" d="M524.69,264.85h3.19a4,4,0,0,1,4,4h0a4,4,0,0,1-4,4h-3.19a4,4,0,0,1-4-4h0A4,4,0,0,1,524.69,264.85Z" transform="translate(-9.24)" style="fill:#e87722"/></g><circle cx="278.82" cy="121.07" r="100.8" style="fill:none;stroke:#e87722;stroke-miterlimit:10;stroke-width:10.64199426376927px"/><rect x="271.76" y="59.19" width="6.04" height="79.39" rx="2.93" ry="2.93" style="fill:#e87722"/><rect x="308.44" y="121.48" width="6.04" height="49.03" rx="2.31" ry="2.31" transform="matrix(-0.24, 0.97, -0.97, -0.24, 517.41, -122.36)" style="fill:#e87722"/><circle cx="276.88" cy="138.58" r="5.12" style="fill:#e87722"/></svg>